# xmcd
#
# Track frame offsets: 
#        150
#        22066
#        46167
#        58593
#        79785
#        102334
#        119343
#        134217
#        157225
#        178165
#        189406
#        206065
#
# Disc length: 2892 seconds
#
# Revision: 2
# Processed by: cddbd v1.5.2PL0 Copyright (c) Steve Scherf et al.
# Submitted via: ExactAudioCopy v0.99pb5
#
DISCID=b20b4a0c
DTITLE=Salsa Celtica - El Camino
DYEAR=2006
DGENRE=Salsa
TTITLE0=Pa'l Rumberos
TTITLE1=Esperanza
TTITLE2=An Cailleach
TTITLE3=Cuando Me Vaya
TTITLE4=Córrela
TTITLE5=Café Colando
TTITLE6=Café Colando (Part 2)
TTITLE7=Grey Gallito
TTITLE8=Luna Llena
TTITLE9=Luna Celosa
TTITLE10=Fuego, Alma y Paz
TTITLE11=Ya Llegó
EXTD=YEAR: 2006
EXTT0=
EXTT1=
EXTT2=
EXTT3=
EXTT4=
EXTT5=
EXTT6=
EXTT7=
EXTT8=
EXTT9=
EXTT10=
EXTT11=
PLAYORDER=
